HIERARCHY
ROOT Hips
{
	OFFSET -0.001795 -0.223333 0.028219
	CHANNELS 6 Xposition Yposition Zposition Zrotation Yrotation Xrotation 
	JOINT LeftUpLeg
	{
		OFFSET 0.069520 -0.091406 -0.006815
		CHANNELS 3 Zrotation Yrotation Xrotation
		JOINT LeftLeg
		{
			OFFSET 0.034277 -0.375199 -0.004496
			CHANNELS 3 Zrotation Yrotation Xrotation
			JOINT LeftFoot
			{
				OFFSET -0.013596 -0.397961 -0.043693
				CHANNELS 3 Zrotation Yrotation Xrotation
				JOINT LeftToe
				{
					OFFSET 0.026358 -0.055791 0.119288
					CHANNELS 3 Zrotation Yrotation Xrotation
					End Site
					{
						OFFSET 0.000000 0.000000 0.000000
					}
				}
			}
		}
	}
	JOINT RightUpLeg
	{
		OFFSET -0.067670 -0.090522 -0.004320
		CHANNELS 3 Zrotation Yrotation Xrotation
		JOINT RightLeg
		{
			OFFSET -0.038290 -0.382569 -0.008850
			CHANNELS 3 Zrotation Yrotation Xrotation
			JOINT RightFoot
			{
				OFFSET 0.015774 -0.398415 -0.042312
				CHANNELS 3 Zrotation Yrotation Xrotation
				JOINT RightToe
				{
					OFFSET -0.025372 -0.048144 0.123348
					CHANNELS 3 Zrotation Yrotation Xrotation
					End Site
					{
						OFFSET 0.000000 0.000000 0.000000
					}
				}
			}
		}
	}
	JOINT Spine
	{
		OFFSET -0.002533 0.108963 -0.026696
		CHANNELS 3 Zrotation Yrotation Xrotation
		JOINT Spine1
		{
			OFFSET 0.005487 0.135180 0.001092
			CHANNELS 3 Zrotation Yrotation Xrotation
			JOINT Spine2
			{
				OFFSET 0.001457 0.052922 0.025425
				CHANNELS 3 Zrotation Yrotation Xrotation
				JOINT Neck
				{
					OFFSET -0.002778 0.213870 -0.042857
					CHANNELS 3 Zrotation Yrotation Xrotation
					JOINT Head
					{
						OFFSET 0.005152 0.064970 0.051349
						CHANNELS 3 Zrotation Yrotation Xrotation
						End Site
						{
							OFFSET 0.000000 0.000000 0.000000
						}
					}
				}
				JOINT LeftShoulder
				{
					OFFSET 0.078845 0.121749 -0.034090
					CHANNELS 3 Zrotation Yrotation Xrotation
					JOINT LeftArm
					{
						OFFSET 0.090977 0.030469 -0.008868
						CHANNELS 3 Zrotation Yrotation Xrotation
						JOINT LeftForeArm
						{
							OFFSET 0.259612 -0.012772 -0.027456
							CHANNELS 3 Zrotation Yrotation Xrotation
							JOINT LeftHand
							{
								OFFSET 0.249234 0.008986 -0.001171
								CHANNELS 3 Zrotation Yrotation Xrotation
								End Site
								{
									OFFSET 0.000000 0.000000 0.000000
								}
							}
						}
					}
				}
				JOINT RightShoulder
				{
					OFFSET -0.081759 0.118833 -0.038615
					CHANNELS 3 Zrotation Yrotation Xrotation
					JOINT RightArm
					{
						OFFSET -0.096012 0.032551 -0.009143
						CHANNELS 3 Zrotation Yrotation Xrotation
						JOINT RightForeArm
						{
							OFFSET -0.253742 -0.013329 -0.021401
							CHANNELS 3 Zrotation Yrotation Xrotation
							JOINT RightHand
							{
								OFFSET -0.255298 0.007772 -0.005559
								CHANNELS 3 Zrotation Yrotation Xrotation
								End Site
								{
									OFFSET 0.000000 0.000000 0.000000
								}
							}
						}
					}
				}
			}
		}
	}
}
MOTION
Frames: 10
Frame Time: 0.050000
0.000000 0.848986 0.000000 -5.387861 -2.699953 7.490850 22.657511 3.853671 -34.584272 -19.455310 8.518603 37.934823 12.908878 26.892178 -4.854349 0.000000 0.000000 0.000000 -9.086748 1.675690 -40.225404 28.502176 -10.638524 35.499454 -18.206136 -40.212076 4.586944 0.000000 0.000000 0.000000 -6.143619 1.182456 43.770876 3.141007 -0.288809 -21.625071 1.814925 2.509825 23.988509 -4.265048 4.163566 -19.929565 0.000000 0.000000 0.000000 -21.973040 -28.961619 15.360678 -37.366903 -48.054410 8.708414 13.966241 -16.365242 -1.230643 0.000000 0.000000 0.000000 15.251341 33.936779 16.952077 51.716841 51.599798 17.253784 -10.692544 13.506040 -0.582025 0.000000 0.000000 0.000000 
-0.000462 0.823947 -0.002277 -6.701789 -2.709912 7.051792 26.039896 5.716524 -39.111675 -20.438879 10.683891 46.210198 11.832667 24.742388 -6.713517 0.000000 0.000000 0.000000 -11.125680 1.088203 -42.907070 34.056870 -13.843747 37.663051 -19.815597 -42.108851 6.590223 0.000000 0.000000 0.000000 -6.989079 1.708966 47.882080 3.103965 -0.272309 -21.790672 3.699442 1.127309 22.599916 -7.097013 5.627542 -21.687291 0.000000 0.000000 0.000000 -24.356955 -28.720527 16.294533 -33.274354 -48.817120 7.527612 16.891315 -16.517738 -1.612672 0.000000 0.000000 0.000000 10.944879 35.910762 16.203730 57.085507 54.623335 21.915387 -13.463811 12.947502 -0.775901 0.000000 0.000000 0.000000 
-0.000626 0.799604 -0.003283 -6.530944 -3.326776 6.435719 27.462984 6.837892 -41.206465 -21.330587 12.649413 51.959510 11.131075 23.422094 -10.837226 0.000000 0.000000 0.000000 -13.965159 0.222485 -44.994946 39.637806 -17.250111 39.959755 -20.685283 -44.062798 5.591599 0.000000 0.000000 0.000000 -7.015790 2.001155 50.962502 2.825175 -0.203222 -22.221619 2.452291 0.780301 21.386009 -8.391531 6.597582 -17.252728 0.000000 0.000000 0.000000 -25.380586 -30.078928 17.529966 -29.620755 -48.462985 6.195207 17.669679 -12.649028 -1.300657 0.000000 0.000000 0.000000 13.302430 38.900284 18.384855 55.168067 56.415960 22.105478 -14.656193 9.880049 -0.604828 0.000000 0.000000 0.000000 
-0.000859 0.776615 -0.003438 -7.389366 -4.878926 5.900595 30.018164 8.469646 -41.749625 -22.933183 14.950288 55.282764 11.325960 24.011931 -13.475099 0.000000 0.000000 0.000000 -14.475188 0.373104 -46.351745 43.292008 -19.427675 41.858382 -21.320819 -45.371219 5.283130 0.000000 0.000000 0.000000 -8.334217 3.286643 53.960108 2.821210 -0.252278 -21.841421 3.074333 0.370992 20.722441 -11.448597 8.446401 -17.832290 0.000000 0.000000 0.000000 -24.559211 -31.175539 18.209971 -27.978177 -49.229092 5.880865 19.863373 -11.389290 -1.354491 0.000000 0.000000 0.000000 12.270785 41.594573 19.150993 52.431392 58.666579 22.018114 -15.400267 9.907288 -0.668597 0.000000 0.000000 0.000000 
-0.001139 0.752415 -0.003495 -8.169338 -6.126191 5.705295 32.332299 10.356960 -43.510622 -23.406510 17.071660 60.603914 11.594432 24.751197 -15.510705 0.000000 0.000000 0.000000 -16.038627 0.089128 -48.707885 47.982470 -22.039246 42.735146 -23.291845 -48.209096 6.201774 0.000000 0.000000 0.000000 -9.305110 4.361235 55.920241 1.972848 -0.076271 -21.603261 3.203114 0.295864 20.408607 -11.755896 8.459370 -18.906972 0.000000 0.000000 0.000000 -21.498039 -32.260846 17.993373 -26.808591 -50.099357 5.779434 20.448726 -9.385194 -1.133695 0.000000 0.000000 0.000000 9.113205 41.787156 17.994730 56.078533 61.896191 26.193791 -16.623756 10.027621 -0.751791 0.000000 0.000000 0.000000 
-0.001452 0.730167 -0.003570 -8.822196 -6.966709 5.450043 34.582384 11.993110 -44.461486 -24.063312 19.166072 65.261220 10.752113 22.429289 -18.936607 0.000000 0.000000 0.000000 -17.289564 -0.192889 -49.686809 52.277213 -24.284622 42.863597 -22.509810 -48.774827 3.010505 0.000000 0.000000 0.000000 -9.868089 5.171142 58.030226 0.770962 0.245584 -22.557913 3.674478 -0.805081 21.119182 -13.623507 9.745442 -17.714282 0.000000 0.000000 0.000000 -21.918344 -33.143929 19.015034 -23.919896 -49.230738 4.442693 21.884867 -8.433699 -1.087731 0.000000 0.000000 0.000000 9.240959 42.427194 18.074673 55.060433 62.428675 25.665805 -17.294121 11.916545 -1.014601 0.000000 0.000000 0.000000 
-0.001748 0.709548 -0.003908 -9.397151 -7.549146 5.622526 36.109679 13.549363 -46.226018 -24.189874 20.505880 68.880858 11.071045 23.362339 -20.383564 0.000000 0.000000 0.000000 -18.373223 -0.465183 -51.001980 56.529090 -26.173069 42.059604 -23.461992 -50.967175 2.167478 0.000000 0.000000 0.000000 -10.455447 5.909511 59.444267 -0.122702 0.462640 -22.703039 3.600394 -1.760538 21.153564 -15.611186 10.954540 -17.773861 0.000000 0.000000 0.000000 -21.425726 -33.349260 19.250063 -21.484312 -49.439472 3.606194 21.976768 -6.792132 -0.835094 0.000000 0.000000 0.000000 9.633261 42.188961 17.939598 54.744222 62.880754 25.588318 -17.689655 14.383243 -1.337818 0.000000 0.000000 0.000000 
-0.002266 0.695162 -0.004386 -10.100290 -8.383113 5.660519 37.098343 14.864520 -47.506497 -23.154446 20.856753 72.454651 10.535708 21.526451 -21.861039 0.000000 0.000000 0.000000 -18.840250 -0.428846 -51.905348 60.294565 -27.401838 40.828560 -25.170865 -53.374953 2.896210 0.000000 0.000000 0.000000 -11.234872 6.859778 60.743296 -1.016976 0.673180 -22.932121 4.098942 -2.272056 20.962840 -17.109307 12.363081 -15.239350 0.000000 0.000000 0.000000 -21.931228 -33.636517 19.788519 -19.482059 -48.383878 2.706354 23.037717 -6.192278 -0.782309 0.000000 0.000000 0.000000 12.240754 42.313824 18.814899 49.663326 61.375866 21.599986 -17.101679 17.507096 -1.650622 0.000000 0.000000 0.000000 
-0.002655 0.685892 -0.004632 -10.827601 -9.213524 5.946556 37.722886 15.838511 -48.165618 -22.045482 20.689268 74.659240 10.586610 21.584769 -22.380097 0.000000 0.000000 0.000000 -18.768839 -0.140703 -52.444048 62.919978 -27.829612 39.526448 -26.888209 -55.359284 4.104232 0.000000 0.000000 0.000000 -11.964330 7.750414 61.386465 -1.185230 0.716337 -23.457544 4.089678 -2.473546 21.609075 -18.323892 12.921489 -16.725436 0.000000 0.000000 0.000000 -21.310127 -33.374012 19.494527 -18.330661 -48.202579 2.267373 23.282780 -5.236794 -0.626437 0.000000 0.000000 0.000000 12.384657 41.923270 18.601567 47.725008 60.218810 19.763806 -16.989942 19.510151 -1.873138 0.000000 0.000000 0.000000 
-0.002898 0.681118 -0.004606 -11.564843 -9.686405 6.211083 37.835907 16.372732 -48.800502 -20.338594 19.740371 76.644160 10.381573 20.821051 -23.100998 0.000000 0.000000 0.000000 -18.925360 -0.052097 -52.838287 65.585072 -27.942527 37.543001 -29.252060 -57.050995 6.811976 0.000000 0.000000 0.000000 -12.087375 8.148607 62.144568 -2.111319 0.933514 -23.461909 3.981353 -2.724028 21.437665 -18.939647 13.378959 -16.310059 0.000000 0.000000 0.000000 -20.433091 -33.201133 19.159029 -18.242594 -47.358647 2.154626 23.642077 -5.309157 -0.643245 0.000000 0.000000 0.000000 12.581358 41.194489 18.260417 45.567986 59.006226 17.915544 -16.853575 22.029281 -2.148868 0.000000 0.000000 0.000000 
